inDegrees=no
num_controls=7
num_derivatives=13
num_iterations=144
num_multipliers=7
num_parameters=0
num_slacks=7
num_states=26
objective=5.539564
objective_accelerations=0.354393
objective_balance=0.009762
objective_effort=0.391974
objective_height=4.670600
objective_ligament=0.112835
solver_duration=1222.156255
status=Solve_Succeeded
success=true
DataType=double
version=3
OpenSimVersion=4.4-2022-07-23-0e9fedc
endheader
time	/jointset/ground_pelvis/pelvis_tilt/value	/jointset/ground_pelvis/pelvis_tx/value	/jointset/ground_pelvis/pelvis_ty/value	/jointset/hip_r/hip_flexion_r/value	/jointset/hip_r/hip_adduction_r/value	/jointset/hip_r/hip_rotation_r/value	/jointset/back/lumbar_extension/value	/jointset/patellofemoral_r/patellar_flexion_r/value	/jointset/knee_r/knee_flexion_r/value	/jointset/knee_r/knee_adduction_r/value	/jointset/knee_r/knee_rotation_r/value	/jointset/ankle_r/ankle_angle_r/value	/jointset/subtalar_r/subtalar_angle_r/value	/jointset/ground_pelvis/pelvis_tilt/speed	/jointset/ground_pelvis/pelvis_tx/speed	/jointset/ground_pelvis/pelvis_ty/speed	/jointset/hip_r/hip_flexion_r/speed	/jointset/hip_r/hip_adduction_r/speed	/jointset/hip_r/hip_rotation_r/speed	/jointset/back/lumbar_extension/speed	/jointset/patellofemoral_r/patellar_flexion_r/speed	/jointset/knee_r/knee_flexion_r/speed	/jointset/knee_r/knee_adduction_r/speed	/jointset/knee_r/knee_rotation_r/speed	/jointset/ankle_r/ankle_angle_r/speed	/jointset/subtalar_r/subtalar_angle_r/speed	/forceset/tau_hip_flexion_r	/forceset/tau_hip_adduction_r	/forceset/tau_hip_rotation_r	/forceset/tau_knee_flexion_r	/forceset/tau_ankle_angle_r	/forceset/tau_subtalar_angle_r	/forceset/tau_lumbar_extension	lambda_cid13_p0	lambda_cid14_p0	lambda_cid14_p1	lambda_cid14_p2	lambda_cid14_p3	lambda_cid14_p4	lambda_cid14_p5	/jointset/ground_pelvis/pelvis_tilt/accel	/jointset/ground_pelvis/pelvis_tx/accel	/jointset/ground_pelvis/pelvis_ty/accel	/jointset/hip_r/hip_flexion_r/accel	/jointset/hip_r/hip_adduction_r/accel	/jointset/hip_r/hip_rotation_r/accel	/jointset/back/lumbar_extension/accel	/jointset/patellofemoral_r/patellar_flexion_r/accel	/jointset/knee_r/knee_flexion_r/accel	/jointset/knee_r/knee_adduction_r/accel	/jointset/knee_r/knee_rotation_r/accel	/jointset/ankle_r/ankle_angle_r/accel	/jointset/subtalar_r/subtalar_angle_r/accel	gamma_cid13_p0	gamma_cid14_p0	gamma_cid14_p1	gamma_cid14_p2	gamma_cid14_p3	gamma_cid14_p4	gamma_cid14_p5
1.5	-0.1369559800674498	0.00215545367003983	0.857051009699328	0.7539076766412053	-0.2193546452958169	-0.1533155903800348	-0.6270208159075482	0.6735653259575597	0.6735653259576783	0.01381324988590208	0.1745241380523111	0.1295742330324258	0.08579015398105265	0.6442767286098846	0.3014531555674638	0.3294587128609438	-1.834305197222176	0.008275144893206821	-0.2342630875084491	0.8012465849316116	-1.231257531316722	-1.23125753131659	0.2160372819184451	4.725319696597785e-05	-0.09285332051108292	-0.01471292340052415	-0.1870158725422332	-0.01428669741340572	0.0161619877230491	-0.2327605749809836	0.06788044638017651	-0.007912418859998013	0.2295665976363367	-22.3338398692941	-21.34523845597998	-3.972561115155338	-2.601270831227711	-5.302620533631383	-640.9564546006573	66.62921645455334	0.03933232677871612	0.5902120022316115	-0.2567778937840656	-1.062916720510264	-0.05833780058439633	-0.2134091410584368	1.785690484688943	-0.9655782148698013	-0.9655782148697972	0.5374379735325169	-0.02843776313556786	-0.05363094061445632	-0.08770826885302664	2.970609220854758e-08	-4.228329693041206e-08	-6.408406332956616e-07	-3.30208790092121e-07	8.881555403283944e-08	4.128119192677226e-08	-2.01677145076573e-07
1.51	-0.1305118974531992	0.005199156699808376	0.8603320847180281	0.7355136275349121	-0.2192748925513781	-0.1556703832835959	-0.6189204352654835	0.6612060073291058	0.6612060073292517	0.01599955442613099	0.1745246118092566	0.1286431479170497	0.085638602891313	0.6444528129408362	0.3072504174929778	0.3266866956331683	-1.84425555403179	0.007673024952054476	-0.2366787459264773	0.8187163835707403	-1.240431724962743	-1.240431724962701	0.2212039283894361	4.643540262704878e-05	-0.09334743436893776	-0.01559516553361518	-0.1790844065796231	-0.01494524054663242	0.01585112158357185	-0.2312400654394563	0.06776862308292289	-0.008555678527071901	0.2227605224486851	-22.87392531277476	-21.19193165087519	-4.162096456445519	-2.643002867244429	-5.108404893059682	-637.2747588209903	66.32419982330282	-0.006305952320790953	0.5689467483945041	-0.2978436654157013	-0.9237403903024495	-0.06162715965270471	-0.2531194459729332	1.710650567502753	-0.8671756769861705	-0.8671756769995579	0.503198378177969	0.01387689409684342	-0.04484109765973967	-0.08831285807537365	3.039245866961681e-08	-4.353618685400808e-08	-6.687824438882805e-07	-3.498421474546993e-07	9.09040788541108e-08	4.458999808816641e-08	-2.086610328847587e-07
1.52	-0.1240686644833387	0.00829972504096891	0.8635833535588225	0.7170275458147111	-0.2192012566201089	-0.1580488278220906	-0.6106487514342286	0.6487601796167011	0.6487601796168434	0.01823690950993175	0.1745250335246045	0.1277076137652381	0.08547826324573482	0.6441067997287833	0.3128262178458614	0.3234974772797087	-1.85271172000603	0.007051782260011854	-0.2389934144964197	0.8355072227689628	-1.248559348109474	-1.24855934810952	0.2262473906322442	3.684487548354497e-05	-0.09374312779834511	-0.01647063456823518	-0.1711529406170032	-0.01560378367983479	0.01554025544407357	-0.2297195558979271	0.06765679978567742	-0.009198938194111149	0.2159544472610403	-23.40514507249141	-21.04297591692112	-4.352433522928354	-2.684561359621831	-4.90887843046769	-633.6587039765947	66.02086692073814	-0.06508718182168396	0.5459196877050451	-0.3402181189209513	-0.7640785534351181	-0.06216235076237833	-0.1932111714412114	1.649898596507953	-0.7562641150114009	-0.7562641150113966	0.5128011278958393	-0.03019230969659199	-0.03394685492551162	-0.0863536491588955	3.099247191127304e-08	-4.460931267772537e-08	-6.948539673422277e-07	-3.68627989071339e-07	9.263715758368558e-08	4.773951589676673e-08	-2.146377237463101e-07
1.53	-0.1176314970896534	0.01145487292385579	0.8668006770515633	0.6984644528381795	-0.2191338622457778	-0.1604500298795222	-0.6022127469259714	0.6362383575670849	0.6362383575671557	0.02052389578803606	0.1745253777911478	0.1267686146212679	0.08530929002343102	0.6432383637273328	0.31815874972028	0.319900349131807	-1.859645271260775	0.006426327283427035	-0.2412297234733771	0.8515620483652571	-1.255620860078126	-1.255620860078298	0.2311229228128367	3.159812951567475e-05	-0.09404040218353883	-0.01731982736432866	-0.1631121092461974	-0.01631647401176909	0.01517505337167871	-0.2282848634232619	0.06759638627855823	-0.009832027068257577	0.2090219522176919	-23.92573521095488	-20.88251926925179	-4.536929176222742	-2.726377952673565	-4.683598984496071	-630.1073473762625	65.74528162789976	-0.1109750580103566	0.5202475278677824	-0.3794805203238872	-0.6187592120261709	-0.06298404206705616	-0.2362408766953574	1.563529964210033	-0.6534708319796589	-0.6534708319986673	0.4707531512151478	0.0141818241657421	-0.0251507519468179	-0.08373672737179073	3.150073485730296e-08	-4.549143914532149e-08	-7.189383107113362e-07	-3.865133452079187e-07	9.399257484083275e-08	5.07197898305236e-08	-2.195442678520627e-07
1.54	-0.1112056647057095	0.01466201164359869	0.8699800251913056	0.6798398711890039	-0.2190727718154099	-0.1628730750498935	-0.5936201430771443	0.6236514451789571	0.6236514451789266	0.0228588021655601	0.1745256441264838	0.1258271361291204	0.08513191794665871	0.6418397977777017	0.3232243852170649	0.3159024066799216	-1.865009454536803	0.005790993468419412	-0.2433620370852275	0.866827090882321	-1.261577415814276	-1.261577415814574	0.2358314105163936	2.125863205369053e-05	-0.09423899743395711	-0.01815040546191179	-0.1550712778753865	-0.01702916434369378	0.01480985129927302	-0.2268501709485944	0.06753597277144267	-0.01046511594238976	0.2020894571743476	-24.43389455264962	-20.72646511925783	-4.72279133456381	-2.767296154982446	-4.449478547895071	-626.6203891827219	65.46727481605781	-0.1711131714572366	0.4925404121778338	-0.4203809797177741	-0.4502049576914529	-0.06413811844687185	-0.1724120984197255	1.49194198066219	-0.5352728685108338	-0.5352728685108337	0.4793922324886025	-0.03121085999550333	-0.01421102797100706	-0.08263070945691524	3.214772187350054e-08	-4.62659914746342e-08	-7.432693485186073e-07	-4.0384228427788e-07	9.533077993998644e-08	5.330043515066706e-08	-2.24032578064934e-07
1.55	-0.104796470614612	0.01791841019771289	0.8731174329419257	0.6611695608613631	-0.2190180430476227	-0.165316991367227	-0.5848790303713151	0.61101053790543	0.6110105379054415	0.02523985045898285	0.1745258399278782	0.1248841673274151	0.08494638734750638	0.6399091546422355	0.3280041206417517	0.3115160576652132	-1.868780380468779	0.005152820844537966	-0.2453985414156692	0.8812449152460177	-1.266410395167167	-1.266410395167361	0.2403519051490592	1.723103292524837e-05	-0.09433809142224585	-0.01895303517187381	-0.1469031003422632	-0.01779477680867586	0.0143920451439838	-0.2256263792126567	0.06770677743127468	-0.01112326679357285	0.1950389172303267	-24.92782204570703	-20.50698630430692	-4.912779438283046	-2.802591686469278	-4.238658822524309	-623.2640614045739	65.2104795059312	-0.2175263675129864	0.4630288378732182	-0.4572134096257049	-0.2997088912791782	-0.06409086784420698	-0.2158617717059337	1.394122409230033	-0.4282705904997491	-0.4282705904841992	0.4342817260654789	0.01482963426225479	-0.005233737005965203	-0.07885110876275506	3.295454314445649e-08	-4.691659968809865e-08	-7.678846212220219e-07	-4.205301341189113e-07	9.664915363971287e-08	5.542063880729944e-08	-2.280390100968768e-07
1.56	-0.09840928025143922	0.02122107385212621	0.8762090868929434	0.6424697067783449	-0.2189697828127768	-0.1677805911621355	-0.5759982554728443	0.5983271088140169	0.5983271088140526	0.02766528442820544	0.1745259611221188	0.1239407125552782	0.08475287604985481	0.6374390521898654	0.3324774052768874	0.3067516467593746	-1.870918205613893	0.004497286881249785	-0.2472987326000951	0.8947595294099513	-1.270081779392912	-1.270081779393002	0.2447085456781247	6.337199149299764e-06	-0.09433619152046477	-0.01974654516171517	-0.1387349228091493	-0.01856038927368157	0.0139742389887566	-0.2244025874767111	0.06787758209110256	-0.01178141764478767	0.1879883772863018	-25.40570348402124	-20.29197642021687	-5.104703541511816	-2.836260859784825	-4.015574346279684	-619.9712644252313	64.94702978423548	-0.2790050348374451	0.431250254267096	-0.4959933579438636	-0.1235848003185834	-0.06761038632816539	-0.1451494692165114	1.311299940709902	-0.3029538430814289	-0.3029538430814298	0.446621411768479	-0.03258410692507548	0.005987750042362186	-0.0808067654328835	3.27718815902478e-08	-4.724901055789934e-08	-7.798519084660507e-07	-4.33734338840827e-07	9.649849603322853e-08	5.708715944354258e-08	-2.280031780452192e-07
